<svg width="20" height="20" viewBox="0 0 20 20" fill="none" xmlns="http://www.w3.org/2000/svg">
<path fill-rule="evenodd" clip-rule="evenodd" d="M18.889 8.88888H1.11118V6.673H18.889V8.88888Z" fill="#1E678F"/>
<path fill-rule="evenodd" clip-rule="evenodd" d="M15.5683 4.43809H4.43176C3.20796 4.43809 2.21588 5.43018 2.21588 6.65398V15.5683C2.21588 16.792 3.20796 17.7841 4.43175 17.7841H15.5683C16.7921 17.7841 17.7841 16.792 17.7841 15.5682V6.65397C17.7841 5.43017 16.7921 4.43809 15.5683 4.43809ZM4.43176 2.22221C1.98416 2.22221 0 4.20638 0 6.65398V15.5683C0 18.0158 1.98416 20 4.43175 20H15.5683C18.0159 20 20 18.0158 20 15.5682V6.65397C20 4.20638 18.0159 2.22221 15.5683 2.22221H4.43176Z" fill="#1E678F"/>
<path d="M14.4445 1.11111C14.4445 0.497461 14.942 0 15.5556 0C16.1693 0 16.6667 0.497462 16.6667 1.11111V2.22223C16.6667 2.83588 16.1693 3.33334 15.5556 3.33334C14.942 3.33334 14.4445 2.83587 14.4445 2.22222V1.11111Z" fill="#1E678F"/>
<path d="M3.57144 1.11111C3.57144 0.497461 4.0689 0 4.68255 0C5.2962 0 5.79367 0.497462 5.79367 1.11111V2.22223C5.79367 2.83588 5.2962 3.33334 4.68255 3.33334C4.0689 3.33334 3.57144 2.83587 3.57144 2.22222V1.11111Z" fill="#1E678F"/>
</svg>
