<svg width="51" height="50" viewBox="0 0 51 50" fill="none" xmlns="http://www.w3.org/2000/svg">
<g filter="url(#filter0_d_362_1939)">
<path fill-rule="evenodd" clip-rule="evenodd" d="M31.8816 10.8088C32.0837 10.4199 32.4323 10.1566 32.8248 10.0514C33.1384 9.96719 33.4813 9.98376 33.8025 10.1211L33.814 10.1261C39.6051 12.6592 42.833 15.0454 45.4904 17.2535C46.0208 17.5927 46.2866 18.2433 46.1015 18.8807L43.9187 26.398C43.4977 27.848 41.872 28.6245 40.4695 28.0454L37.369 26.7652L38.6166 38.1181C38.8443 40.1899 37.2219 42.0004 35.1375 42.0004H25.419H24.8993H15.1808C13.0964 42.0004 11.474 40.1899 11.7017 38.1181L12.9492 26.7652L9.84889 28.0454C8.44645 28.6245 6.82075 27.848 6.3997 26.398L4.21693 18.8807C4.03184 18.2433 4.2976 17.5927 4.82801 17.2535C7.48399 15.0466 10.7099 12.6617 16.4953 10.1301C16.6433 10.064 16.7971 10.0239 16.9511 10.0079C17.1565 9.98664 17.3616 10.0086 17.5541 10.069C17.9247 10.1853 18.2486 10.4442 18.438 10.8113C19.1567 12.192 21.1891 13.9254 25.1594 13.998C29.1317 13.9253 31.1641 12.1898 31.8816 10.8088ZM25.1594 16.9984C25.2454 16.9997 25.3319 17.0004 25.419 17.0004C25.4946 17.0004 25.5689 16.9948 25.6415 16.984C29.4872 16.8121 32.2155 15.3088 33.7584 13.3901C38.0791 15.3869 40.7374 17.2597 42.9226 19.0272L41.1625 25.0888L36.4225 23.1316C36.2299 23.0521 36.0292 23.0151 35.8312 23.0162C35.7068 22.9979 35.5781 22.995 35.4473 23.0094C34.6238 23.0998 34.0296 23.8408 34.1201 24.6642L35.6345 38.4458C35.6671 38.7417 35.4353 39.0004 35.1375 39.0004H25.419H24.8993H15.1808C14.883 39.0004 14.6512 38.7417 14.6837 38.4458L16.1982 24.6642C16.2887 23.8408 15.6945 23.0998 14.871 23.0094C14.7402 22.995 14.6115 22.9979 14.4871 23.0162C14.2892 23.0151 14.0884 23.0521 13.8959 23.1316L9.15589 25.0888L7.39579 19.0272C9.58095 17.2597 12.2393 15.387 16.5599 13.3902C18.1028 15.3088 20.831 16.8121 24.6766 16.984C24.7493 16.9948 24.8237 17.0004 24.8993 17.0004C24.9865 17.0004 25.0732 16.9997 25.1594 16.9984Z" fill="#3E6991"/>
</g>
<defs>
<filter id="filter0_d_362_1939" x="-3" y="0" width="56" height="56" filterUnits="userSpaceOnUse" color-interpolation-filters="sRGB">
<feFlood flood-opacity="0" result="BackgroundImageFix"/>
<feColorMatrix in="SourceAlpha" type="matrix" values="0 0 0 0 0 0 0 0 0 0 0 0 0 0 0 0 0 0 127 0" result="hardAlpha"/>
<feOffset dy="4"/>
<feGaussianBlur stdDeviation="2"/>
<feComposite in2="hardAlpha" operator="out"/>
<feColorMatrix type="matrix" values="0 0 0 0 0 0 0 0 0 0 0 0 0 0 0 0 0 0 0.25 0"/>
<feBlend mode="normal" in2="BackgroundImageFix" result="effect1_dropShadow_362_1939"/>
<feBlend mode="normal" in="SourceGraphic" in2="effect1_dropShadow_362_1939" result="shape"/>
</filter>
</defs>
</svg>
