<svg width="48" height="48" viewBox="0 0 48 48" fill="none" xmlns="http://www.w3.org/2000/svg">
<path fill-rule="evenodd" clip-rule="evenodd" d="M30.8816 10.8088C31.0837 10.4199 31.4323 10.1566 31.8248 10.0514C32.1384 9.96719 32.4813 9.98376 32.8025 10.1211L32.814 10.1261C38.6051 12.6592 41.833 15.0454 44.4904 17.2535C45.0208 17.5927 45.2866 18.2433 45.1015 18.8807L42.9187 26.398C42.4977 27.848 40.872 28.6245 39.4695 28.0454L36.369 26.7652L37.6166 38.1181C37.8443 40.1899 36.2219 42.0004 34.1375 42.0004H24.419H23.8993H14.1808C12.0964 42.0004 10.474 40.1899 10.7017 38.1181L11.9492 26.7652L8.84889 28.0454C7.44645 28.6245 5.82075 27.848 5.3997 26.398L3.21693 18.8807C3.03184 18.2433 3.2976 17.5927 3.82801 17.2535C6.48399 15.0466 9.70989 12.6617 15.4953 10.1301C15.6433 10.064 15.7971 10.0239 15.9511 10.0079C16.1565 9.98664 16.3616 10.0086 16.5541 10.069C16.9247 10.1853 17.2486 10.4442 17.438 10.8113C18.1567 12.192 20.1891 13.9254 24.1594 13.998C28.1317 13.9253 30.1641 12.1898 30.8816 10.8088ZM24.1594 16.9984C24.2454 16.9997 24.3319 17.0004 24.419 17.0004C24.4946 17.0004 24.5689 16.9948 24.6415 16.984C28.4872 16.8121 31.2155 15.3088 32.7584 13.3901C37.0791 15.3869 39.7374 17.2597 41.9226 19.0272L40.1625 25.0888L35.4225 23.1316C35.2299 23.0521 35.0292 23.0151 34.8312 23.0162C34.7068 22.9979 34.5781 22.995 34.4473 23.0094C33.6238 23.0998 33.0296 23.8408 33.1201 24.6642L34.6345 38.4458C34.6671 38.7417 34.4353 39.0004 34.1375 39.0004H24.419H23.8993H14.1808C13.883 39.0004 13.6512 38.7417 13.6837 38.4458L15.1982 24.6642C15.2887 23.8408 14.6945 23.0998 13.871 23.0094C13.7402 22.995 13.6115 22.9979 13.4871 23.0162C13.2892 23.0151 13.0884 23.0521 12.8959 23.1316L8.15589 25.0888L6.39579 19.0272C8.58095 17.2597 11.2393 15.387 15.5599 13.3902C17.1028 15.3088 19.831 16.8121 23.6766 16.984C23.7493 16.9948 23.8237 17.0004 23.8993 17.0004C23.9865 17.0004 24.0732 16.9997 24.1594 16.9984Z" fill="#C3D5DF"/>
</svg>
