<svg width="48" height="48" viewBox="0 0 48 48" fill="none" xmlns="http://www.w3.org/2000/svg">
<path fill-rule="evenodd" clip-rule="evenodd" d="M16.3165 14.5419C16.3165 15.3703 16.9881 16.0419 17.8165 16.0419C18.6449 16.0419 19.3165 15.3703 19.3165 14.5419C19.3165 12.6996 20.9773 11 23.2911 11C25.6049 11 27.2658 12.6996 27.2658 14.5419L27.266 14.5419C27.266 16.3831 25.607 18.0819 23.2953 18.0838L23.291 18.0838C22.4626 18.0838 21.791 18.7554 21.791 19.5838V23.967C21.7623 23.9841 21.7338 24.0018 21.7055 24.02L6.52321 33.7961C2.32917 36.4967 4.24185 43 9.23015 43H38.2099C43.2572 43 45.1255 36.3719 40.8211 33.736L24.8964 23.9839C24.8616 23.9626 24.8264 23.9421 24.791 23.9223V20.9302C27.852 20.2954 30.266 17.7582 30.266 14.5419L30.2658 14.5419C30.2658 10.815 27.0244 7.99995 23.2911 7.99995C19.5578 7.99995 16.3165 10.815 16.3165 14.5419ZM23.3297 26.5423L39.2544 36.2944C40.9761 37.3487 40.2288 40 38.2099 40H9.23015C7.23481 40 6.46976 37.3986 8.14737 36.3184L23.3297 26.5423Z" fill="#C3D5DF"/>
</svg>
