<svg width="36" height="40" viewBox="0 0 36 40" fill="none" xmlns="http://www.w3.org/2000/svg">
<circle cx="18.142" cy="20" r="6.5" stroke="#3E6991" stroke-width="3"/>
<path d="M6.5005 9.75116L5.7505 11.0502L5.7505 11.0502L6.5005 9.75116ZM2.40242 10.8492L3.70146 11.5992L3.70146 11.5992L2.40242 10.8492ZM3.5005 14.9473L2.7505 16.2463L2.7505 16.2463L3.5005 14.9473ZM3.74146 25.4132L2.93244 24.15L2.93244 24.15L3.74146 25.4132ZM2.83324 29.5574L1.57011 30.3665L2.83324 29.5574ZM6.97753 30.4657L6.16851 29.2025L6.16851 29.2025L6.97753 30.4657ZM29.4813 29.9473L30.2313 28.6483L30.2313 28.6483L29.4813 29.9473ZM33.5793 28.8492L34.8784 29.5992L34.8784 29.5992L33.5793 28.8492ZM32.4813 24.7512L33.2313 23.4521L33.2313 23.4521L32.4813 24.7512ZM32.2401 14.2853L31.4311 13.0222L31.4311 13.0222L32.2401 14.2853ZM33.1483 10.141L34.4114 9.33201L34.4114 9.33201L33.1483 10.141ZM29.004 9.23281L28.195 7.96968L28.195 7.96968L29.004 9.23281ZM31.2968 24.0673L32.0468 22.7683L31.2968 24.0673ZM30.8142 22.9129L32.2764 23.2476L30.8142 22.9129ZM27.0753 29.4443L26.0443 28.3547L27.0753 29.4443ZM28.3227 29.2784L29.0727 27.9794L28.3227 29.2784ZM5.57761 23.3502L4.128 23.7357L5.57761 23.3502ZM5.14541 24.5139L4.3364 23.2508L5.14541 24.5139ZM30.5969 16.2635L32.0338 15.833L30.5969 16.2635ZM31.0194 15.0671L30.2104 13.804L31.0194 15.0671ZM14.3777 7.55329L13.9441 6.11734L14.3777 7.55329ZM8.27867 29.6323L7.46965 28.3692L8.27867 29.6323ZM14.3777 32.4467L13.9441 33.8827L14.3777 32.4467ZM8.04485 10.6428L8.79485 9.34375L8.04485 10.6428ZM27.6745 10.0843L26.8655 8.8212L27.6745 10.0843ZM26.4367 9.98977L25.479 11.1442L26.4367 9.98977ZM21.9059 32.4467L21.4723 31.0108L21.9059 32.4467ZM5.01316 15.8206L5.76316 14.5216L5.01316 15.8206ZM5.49354 16.9838L4.03416 16.6371L5.49354 16.9838ZM16.6418 5C16.6418 4.17157 17.3134 3.5 18.1418 3.5V0.5C15.6566 0.5 13.6418 2.51472 13.6418 5H16.6418ZM16.6418 6.55656V5H13.6418V6.55656H16.6418ZM10.3079 11.5809C11.5772 10.3993 13.1121 9.50242 14.8114 8.98923L13.9441 6.11734C11.7966 6.76589 9.8612 7.89798 8.26374 9.38517L10.3079 11.5809ZM5.7505 11.0502L7.29485 11.9418L8.79485 9.34375L7.2505 8.45212L5.7505 11.0502ZM3.70146 11.5992C4.11568 10.8818 5.03306 10.636 5.7505 11.0502L7.2505 8.45212C5.09819 7.20948 2.34603 7.94692 1.10339 10.0992L3.70146 11.5992ZM4.2505 13.6483C3.53306 13.2341 3.28725 12.3167 3.70146 11.5992L1.10339 10.0992C-0.139255 12.2515 0.598181 15.0037 2.7505 16.2463L4.2505 13.6483ZM5.76316 14.5216L4.2505 13.6483L2.7505 16.2463L4.26316 17.1197L5.76316 14.5216ZM6.64184 20C6.64184 19.0793 6.74974 18.1857 6.95292 17.3305L4.03416 16.6371C3.7774 17.7178 3.64184 18.8441 3.64184 20H6.64184ZM7.02722 22.9647C6.7761 22.0205 6.64184 21.0271 6.64184 20H3.64184C3.64184 21.2897 3.81058 22.5422 4.128 23.7357L7.02722 22.9647ZM4.55048 26.6763L5.95443 25.7771L4.3364 23.2508L2.93244 24.15L4.55048 26.6763ZM4.09637 28.7484C3.64956 28.0508 3.85287 27.1231 4.55048 26.6763L2.93244 24.15C0.839627 25.4905 0.229689 28.2736 1.57011 30.3665L4.09637 28.7484ZM6.16851 29.2025C5.47091 29.6493 4.54318 29.446 4.09637 28.7484L1.57011 30.3665C2.91054 32.4593 5.69373 33.0692 7.78655 31.7288L6.16851 29.2025ZM7.46965 28.3692L6.16851 29.2025L7.78655 31.7288L9.08768 30.8954L7.46965 28.3692ZM14.8114 31.0108C13.212 30.5277 11.7582 29.7049 10.5345 28.6245L8.54901 30.8735C10.0895 32.2334 11.9229 33.2722 13.9441 33.8827L14.8114 31.0108ZM16.6418 35V33.4434H13.6418V35H16.6418ZM18.1418 36.5C17.3134 36.5 16.6418 35.8284 16.6418 35H13.6418C13.6418 37.4853 15.6566 39.5 18.1418 39.5V36.5ZM19.6418 35C19.6418 35.8284 18.9703 36.5 18.1418 36.5V39.5C20.6271 39.5 22.6418 37.4853 22.6418 35H19.6418ZM19.6418 33.4434V35H22.6418V33.4434H19.6418ZM26.0443 28.3547C24.762 29.5681 23.2023 30.4883 21.4723 31.0108L22.3396 33.8827C24.5259 33.2224 26.4924 32.0609 28.1063 30.5338L26.0443 28.3547ZM30.2313 28.6483L29.0727 27.9794L27.5727 30.5774L28.7313 31.2463L30.2313 28.6483ZM32.2803 28.0992C31.8661 28.8167 30.9487 29.0625 30.2313 28.6483L28.7313 31.2463C30.8836 32.489 33.6357 31.7516 34.8784 29.5992L32.2803 28.0992ZM31.7313 26.0502C32.4487 26.4644 32.6945 27.3818 32.2803 28.0992L34.8784 29.5992C36.121 27.4469 35.3836 24.6948 33.2313 23.4521L31.7313 26.0502ZM30.5468 25.3663L31.7313 26.0502L33.2313 23.4521L32.0468 22.7683L30.5468 25.3663ZM29.6418 20C29.6418 20.888 29.5415 21.7507 29.3521 22.5781L32.2764 23.2476C32.5157 22.2021 32.6418 21.1148 32.6418 20H29.6418ZM29.1599 16.694C29.4731 17.7392 29.6418 18.8486 29.6418 20H32.6418C32.6418 18.5539 32.4297 17.1546 32.0338 15.833L29.1599 16.694ZM31.4311 13.0222L30.2104 13.804L31.8284 16.3303L33.0491 15.5484L31.4311 13.0222ZM31.8852 10.95C32.332 11.6477 32.1287 12.5754 31.4311 13.0222L33.0491 15.5484C35.1419 14.208 35.7519 11.4248 34.4114 9.33201L31.8852 10.95ZM29.813 10.4959C30.5106 10.0491 31.4384 10.2524 31.8852 10.95L34.4114 9.33201C33.071 7.2392 30.2878 6.62926 28.195 7.96968L29.813 10.4959ZM28.4836 11.3475L29.813 10.4959L28.195 7.96968L26.8655 8.8212L28.4836 11.3475ZM21.4723 8.98922C22.9555 9.43717 24.3135 10.1774 25.479 11.1442L27.3944 8.8353C25.9269 7.61792 24.214 6.68342 22.3396 6.11734L21.4723 8.98922ZM19.6418 5V6.55656H22.6418V5H19.6418ZM18.1418 3.5C18.9703 3.5 19.6418 4.17157 19.6418 5H22.6418C22.6418 2.51472 20.6271 0.5 18.1418 0.5V3.5ZM32.0468 22.7683C32.263 22.8931 32.3082 23.1087 32.2764 23.2476L29.3521 22.5781C29.1143 23.6169 29.5309 24.7798 30.5468 25.3663L32.0468 22.7683ZM28.1063 30.5338C28.0015 30.633 27.7904 30.7031 27.5727 30.5774L29.0727 27.9794C28.0496 27.3887 26.8245 27.6165 26.0443 28.3547L28.1063 30.5338ZM4.128 23.7357C4.09165 23.599 4.12823 23.3841 4.3364 23.2508L5.95443 25.7771C6.93259 25.1506 7.29859 23.985 7.02722 22.9647L4.128 23.7357ZM32.0338 15.833C32.0751 15.971 32.0426 16.1931 31.8284 16.3303L30.2104 13.804C29.2053 14.4477 28.8491 15.6563 29.1599 16.694L32.0338 15.833ZM13.6418 6.55656C13.6418 6.30549 13.8075 6.15859 13.9441 6.11734L14.8114 8.98923C15.8358 8.67984 16.6418 7.73508 16.6418 6.55656H13.6418ZM9.08768 30.8954C8.87374 31.0325 8.65784 30.9695 8.54901 30.8735L10.5345 28.6245C9.72165 27.9069 8.47438 27.7257 7.46965 28.3692L9.08768 30.8954ZM13.9441 33.8827C13.8075 33.8414 13.6418 33.6945 13.6418 33.4434H16.6418C16.6418 32.2649 15.8358 31.3202 14.8114 31.0108L13.9441 33.8827ZM8.26374 9.38517C8.36883 9.28733 8.57872 9.21897 8.79485 9.34375L7.29485 11.9418C8.31067 12.5283 9.52696 12.308 10.3079 11.5809L8.26374 9.38517ZM26.8655 8.8212C27.0736 8.68795 27.2846 8.74424 27.3944 8.8353L25.479 11.1442C26.2927 11.8192 27.5053 11.974 28.4836 11.3475L26.8655 8.8212ZM22.6418 33.4434C22.6418 33.6945 22.4762 33.8414 22.3396 33.8827L21.4723 31.0108C20.4478 31.3202 19.6418 32.2649 19.6418 33.4434H22.6418ZM22.3396 6.11734C22.4762 6.15859 22.6418 6.30551 22.6418 6.55656H19.6418C19.6418 7.73506 20.4478 8.67983 21.4723 8.98922L22.3396 6.11734ZM4.26316 17.1197C4.04527 16.9939 4.00109 16.7763 4.03416 16.6371L6.95292 17.3305C7.20091 16.2867 6.78628 15.1123 5.76316 14.5216L4.26316 17.1197Z" fill="#3E6991"/>
</svg>
