<svg width="13" height="17" viewBox="0 0 13 17" fill="none" xmlns="http://www.w3.org/2000/svg">
<path fill-rule="evenodd" clip-rule="evenodd" d="M0.166687 6.6122C0.166687 3.32516 2.84954 0.666656 6.16669 0.666656C9.48383 0.666656 12.1667 3.32516 12.1667 6.6122C12.1667 9.66902 9.3471 13.7237 7.57367 15.9716C6.84432 16.8961 5.48905 16.8961 4.7597 15.9716C2.98627 13.7237 0.166687 9.66902 0.166687 6.6122ZM6.16669 2.36538C3.80097 2.36538 1.88097 4.26796 1.88097 6.6122C1.88097 8.70122 3.74496 11.7454 5.40159 13.9979C5.78404 14.5179 6.55212 14.52 6.93664 14.0015C8.60982 11.7455 10.4524 8.72558 10.4524 6.6122C10.4524 4.26796 8.5324 2.36538 6.16669 2.36538ZM6.16664 9.1603C7.30277 9.1603 8.22378 8.24764 8.22378 7.12182C8.22378 5.99601 7.30277 5.08335 6.16664 5.08335C5.03051 5.08335 4.1095 5.99601 4.1095 7.12182C4.1095 8.24764 5.03051 9.1603 6.16664 9.1603Z" fill="#1E678F"/>
</svg>
