<svg width="48" height="48" viewBox="0 0 48 48" fill="none" xmlns="http://www.w3.org/2000/svg">
<path fill-rule="evenodd" clip-rule="evenodd" d="M25.47 9.68292C24.5621 8.97444 23.2876 8.97784 22.3835 9.69116L11.0001 18.6722V37.651C11.0001 38.4794 11.6717 39.151 12.5001 39.151H17V26.946C17 25.8414 17.8954 24.946 19 24.946H29C30.1045 24.946 31 25.8414 31 26.946V39.151H35.4961C36.3245 39.151 36.9961 38.4794 36.9961 37.651V18.6771L25.47 9.68292ZM8.57099 16.7674C8.19195 17.0664 7.99602 17.5115 8.00008 17.9596V37.651C8.00008 40.1363 10.0148 42.151 12.5001 42.151H35.4961C37.9814 42.151 39.9961 40.1363 39.9961 37.651V17.9601C40.0003 17.5091 39.8019 17.0613 39.4189 16.7624L27.3156 7.3178C25.3181 5.75914 22.5144 5.76662 20.5253 7.33592L8.57099 16.7674ZM20 39.0761V27.946H28V39.0761H20Z" fill="#3E6991"/>
</svg>
