<svg width="48" height="48" viewBox="0 0 48 48" fill="none" xmlns="http://www.w3.org/2000/svg">
<path fill-rule="evenodd" clip-rule="evenodd" d="M29.4546 3.9832C30.283 3.9832 30.9546 4.65477 30.9546 5.4832V7.51102C30.9546 8.33945 30.283 9.01102 29.4546 9.01102C28.6261 9.01102 27.9546 8.33945 27.9546 7.51102V5.4832C27.9546 4.65477 28.6261 3.9832 29.4546 3.9832ZM34.6067 26.4575C37.221 24.8244 38.9532 21.9706 38.9532 18.723C38.9532 13.6507 34.7277 9.53884 29.5152 9.53884C24.5336 9.53884 20.4535 13.2945 20.1018 18.0548C17.467 18.7583 15.2022 20.3361 13.6575 22.4473C13.0693 23.2512 12.2056 23.8236 11.2456 24.0893C7.31905 25.176 4.4481 28.695 4.4481 32.8588C4.4481 37.8929 8.65232 41.984 13.8255 41.984H34.1433C38.4569 41.984 41.9578 38.5773 41.9578 34.3797C41.9578 30.3646 38.7539 27.11 34.6903 26.8362C34.6646 26.7092 34.6367 26.5829 34.6067 26.4575ZM33.4855 23.5929C35.0002 22.4479 35.9532 20.6693 35.9532 18.723C35.9532 15.3842 33.1484 12.5388 29.5152 12.5388C26.2786 12.5388 23.6994 14.7968 23.1749 17.6502L23.203 17.6502C27.6411 17.6502 31.499 20.0475 33.4855 23.5929ZM13.8255 38.9423H34.1433C36.7377 38.9423 38.832 36.9043 38.832 34.3797C38.832 31.8551 36.7377 29.8171 34.1433 29.8171H32.5594C32.1394 29.8171 31.7989 29.4766 31.7989 29.0567C31.7989 24.4332 27.9542 20.6919 23.203 20.6919C19.6649 20.6919 16.6439 22.7661 15.3184 25.7347C15.0502 26.3354 14.4834 26.7754 13.8255 26.7754C10.3715 26.7754 7.57391 29.4977 7.57391 32.8588C7.57391 36.2199 10.3715 38.9423 13.8255 38.9423ZM19.0683 9.50665C18.4746 8.9289 17.512 8.9289 16.9183 9.50665C16.3245 10.0844 16.3245 11.0211 16.9183 11.5989L18.3918 13.0328C18.9856 13.6106 19.9482 13.6106 20.5419 13.0328C21.1356 12.4551 21.1356 11.5184 20.5419 10.9406L19.0683 9.50665ZM39.453 20.36C39.646 19.5544 40.4574 19.0499 41.2653 19.2331L43.294 19.6934C44.1019 19.8766 44.6004 20.6783 44.4074 21.4839C44.2144 22.2896 43.403 22.7941 42.5951 22.6108L40.5664 22.1506C39.7585 21.9673 39.26 21.1656 39.453 20.36ZM40.2724 9.50665C40.8662 8.9289 41.8288 8.9289 42.4225 9.50665C43.0162 10.0844 43.0162 11.0211 42.4225 11.5989L40.9489 13.0328C40.3552 13.6106 39.3926 13.6106 38.7988 13.0328C38.2051 12.4551 38.2051 11.5184 38.7988 10.9406L40.2724 9.50665Z" fill="#3E6991"/>
</svg>
