<svg width="48" height="48" viewBox="0 0 48 48" fill="none" xmlns="http://www.w3.org/2000/svg">
<path fill-rule="evenodd" clip-rule="evenodd" d="M28.7647 16.8571C28.7647 19.2241 26.8553 21.1429 24.5 21.1429C22.1447 21.1429 20.2353 19.2241 20.2353 16.8571C20.2353 14.4902 22.1447 12.5714 24.5 12.5714C26.8553 12.5714 28.7647 14.4902 28.7647 16.8571ZM31.3235 16.8571C31.3235 20.6442 28.2685 23.7143 24.5 23.7143C20.7315 23.7143 17.6765 20.6442 17.6765 16.8571C17.6765 13.07 20.7315 10 24.5 10C28.2685 10 31.3235 13.07 31.3235 16.8571ZM36.4412 32.2857C36.4412 32.9941 35.8568 34.2438 33.5558 35.4679C31.3693 36.6312 28.1719 37.4286 24.5 37.4286C20.8281 37.4286 17.6307 36.6312 15.4442 35.4679C13.1432 34.2438 12.5588 32.9941 12.5588 32.2857C12.5588 31.5773 13.1432 30.3277 15.4442 29.1035C17.6307 27.9402 20.8281 27.1429 24.5 27.1429C28.1719 27.1429 31.3693 27.9402 33.5558 29.1035C35.8568 30.3277 36.4412 31.5773 36.4412 32.2857ZM39 32.2857C39 36.5462 32.5081 40 24.5 40C16.4919 40 10 36.5462 10 32.2857C10 28.0252 16.4919 24.5714 24.5 24.5714C32.5081 24.5714 39 28.0252 39 32.2857Z" fill="#1E678F"/>
</svg>
