<svg width="48" height="48" viewBox="0 0 48 48" fill="none" xmlns="http://www.w3.org/2000/svg">
<path fill-rule="evenodd" clip-rule="evenodd" d="M25.1961 11.9411C24.4583 11.3507 23.4227 11.3535 22.688 11.948L13.4378 19.4328V35.2497C13.4378 35.9401 13.9836 36.4998 14.6567 36.4998H18.3133V26.3281C18.3133 25.4076 19.041 24.6613 19.9385 24.6613H28.0645C28.9621 24.6613 29.6897 25.4076 29.6897 26.3281V36.4998H33.3433C34.0164 36.4998 34.5622 35.9401 34.5622 35.2497V19.4369L25.1961 11.9411ZM11.464 17.8453C11.156 18.0945 10.9968 18.4655 11.0001 18.8389V35.2497C11.0001 37.3209 12.6372 39 14.6567 39H33.3433C35.3628 39 36.9999 37.3209 36.9999 35.2497V18.8393C37.0034 18.4635 36.8422 18.0903 36.5309 17.8412L26.6958 9.97003C25.0727 8.67104 22.7943 8.67728 21.178 9.98513L11.464 17.8453ZM20.7511 36.4374V27.1615H27.2519V36.4374H20.7511Z" fill="#C3D5DF"/>
</svg>
