<svg width="48" height="48" viewBox="0 0 48 48" fill="none" xmlns="http://www.w3.org/2000/svg">
<path fill-rule="evenodd" clip-rule="evenodd" d="M29 15C29 17.7614 26.7614 20 24 20C21.2386 20 19 17.7614 19 15C19 12.2386 21.2386 10 24 10C26.7614 10 29 12.2386 29 15ZM32 15C32 19.4183 28.4183 23 24 23C19.5817 23 16 19.4183 16 15C16 10.5817 19.5817 7 24 7C28.4183 7 32 10.5817 32 15ZM38 33C38 33.8265 37.3149 35.2844 34.6172 36.7126C32.0536 38.0698 28.305 39 24 39C19.695 39 15.9464 38.0698 13.3828 36.7126C10.6851 35.2844 10 33.8265 10 33C10 32.1735 10.6851 30.7156 13.3828 29.2874C15.9464 27.9302 19.695 27 24 27C28.305 27 32.0536 27.9302 34.6172 29.2874C37.3149 30.7156 38 32.1735 38 33ZM41 33C41 37.9706 33.3888 42 24 42C14.6112 42 7 37.9706 7 33C7 28.0294 14.6112 24 24 24C33.3888 24 41 28.0294 41 33Z" fill="#3E6991"/>
</svg>
