<svg width="48" height="48" viewBox="0 0 48 48" fill="none" xmlns="http://www.w3.org/2000/svg">
<path fill-rule="evenodd" clip-rule="evenodd" d="M26.6299 8C27.3134 8 27.8674 8.56552 27.8674 9.26313V10.9707C27.8674 11.6683 27.3134 12.2339 26.6299 12.2339C25.9465 12.2339 25.3924 11.6683 25.3924 10.9707V9.26313C25.3924 8.56552 25.9465 8 26.6299 8ZM30.8803 26.9253C33.0371 25.5501 34.4661 23.1469 34.4661 20.4122C34.4661 16.1409 30.9801 12.6783 26.6799 12.6783C22.5702 12.6783 19.2042 15.8409 18.914 19.8495C16.4464 20.5221 14.3722 22.1434 13.1139 24.2936C12.9734 24.5337 12.7341 24.697 12.4636 24.7411C8.79423 25.3395 6 28.5074 6 32.3158C6 36.5549 9.4684 40 13.7362 40H30.498C34.0567 40 36.9449 37.1312 36.9449 33.5965C36.9449 30.2154 34.3017 27.4747 30.9493 27.2442C30.9281 27.1372 30.9051 27.0309 30.8803 26.9253ZM29.9554 24.5131C31.2049 23.5488 31.9912 22.0511 31.9912 20.4122C31.9912 17.6006 29.6773 15.2046 26.6799 15.2046C24.0098 15.2046 21.882 17.106 21.4493 19.5088L21.4724 19.5088C25.1338 19.5088 28.3166 21.5275 29.9554 24.5131ZM13.7362 37.4386H30.498C32.6384 37.4386 34.3661 35.7225 34.3661 33.5965C34.3661 31.4705 32.6384 29.7544 30.498 29.7544H29.1913C28.8448 29.7544 28.564 29.4677 28.564 29.114C28.564 25.2207 25.3921 22.0702 21.4724 22.0702C18.5536 22.0702 16.0614 23.8168 14.9678 26.3166C14.7466 26.8225 14.2789 27.193 13.7362 27.193C10.8867 27.193 8.57874 29.4854 8.57874 32.3158C8.57874 35.1461 10.8867 37.4386 13.7362 37.4386ZM18.0614 12.6512C17.5716 12.1647 16.7775 12.1647 16.2877 12.6512C15.7979 13.1377 15.7979 13.9265 16.2877 14.413L17.5034 15.6206C17.9932 16.1071 18.7873 16.1071 19.2771 15.6206C19.7669 15.1341 19.7669 14.3453 19.2771 13.8587L18.0614 12.6512ZM34.8785 21.7907C35.0377 21.1123 35.7071 20.6874 36.3736 20.8418L38.0472 21.2293C38.7137 21.3836 39.125 22.0587 38.9658 22.7371C38.8065 23.4155 38.1371 23.8404 37.4706 23.6861L35.797 23.2985C35.1305 23.1442 34.7193 22.4691 34.8785 21.7907ZM35.5545 12.6512C36.0443 12.1647 36.8384 12.1647 37.3282 12.6512C37.818 13.1377 37.818 13.9265 37.3282 14.413L36.1125 15.6206C35.6227 16.1071 34.8286 16.1071 34.3388 15.6206C33.849 15.1341 33.849 14.3453 34.3388 13.8587L35.5545 12.6512Z" fill="#BACFDA"/>
</svg>
