<svg width="30" height="30" viewBox="0 0 30 30" fill="none" xmlns="http://www.w3.org/2000/svg">
<path fill-rule="evenodd" clip-rule="evenodd" d="M15 18.125C16.7259 18.125 18.125 16.7259 18.125 15C18.125 13.2741 16.7259 11.875 15 11.875C13.2741 11.875 11.875 13.2741 11.875 15C11.875 16.7259 13.2741 18.125 15 18.125ZM15 20C17.7614 20 20 17.7614 20 15C20 12.2386 17.7614 10 15 10C12.2386 10 10 12.2386 10 15C10 17.7614 12.2386 20 15 20Z" fill="#8BB0C5"/>
<path fill-rule="evenodd" clip-rule="evenodd" d="M15.0002 4.6875C14.4824 4.6875 14.0627 5.10723 14.0627 5.625V6.59785C14.0627 7.33442 13.5589 7.9249 12.9187 8.11827C11.8566 8.43901 10.8973 8.99956 10.104 9.73808C9.61589 10.1925 8.85571 10.3302 8.22081 9.96364L7.2556 9.40637C6.8072 9.14749 6.23383 9.30112 5.97495 9.74952C5.71606 10.1979 5.8697 10.7713 6.3181 11.0302L7.26351 11.576C7.90296 11.9452 8.1621 12.6792 8.00711 13.3316C7.88012 13.8661 7.81268 14.4246 7.81268 15C7.81268 15.6419 7.8966 16.2628 8.05355 16.8529C8.22316 17.4906 7.9944 18.2191 7.38305 18.6107L6.50558 19.1727C6.06958 19.4519 5.94251 20.0318 6.22176 20.4678C6.50102 20.9038 7.08085 21.0308 7.51685 20.7516L8.33007 20.2307C8.95802 19.8285 9.73756 19.9418 10.2456 20.3903C11.0104 21.0655 11.9191 21.5798 12.9187 21.8817C13.5589 22.0751 14.0627 22.6656 14.0627 23.4021V24.375C14.0627 24.8928 14.4824 25.3125 15.0002 25.3125C15.518 25.3125 15.9377 24.8928 15.9377 24.375V23.4021C15.9377 22.6656 16.4414 22.0751 17.0817 21.8817C18.1629 21.5552 19.1378 20.9801 19.9392 20.2217C20.4269 19.7603 21.1925 19.6179 21.8319 19.9871L22.5561 20.4052C23.0045 20.6641 23.5778 20.5104 23.8367 20.062C24.0956 19.6136 23.942 19.0403 23.4936 18.7814L22.7533 18.354C22.1184 17.9874 21.858 17.2606 22.0066 16.6113C22.1249 16.0942 22.1877 15.555 22.1877 15C22.1877 14.2804 22.0822 13.587 21.8865 12.9337C21.6922 12.2852 21.9149 11.5298 22.543 11.1275L23.3059 10.6389C23.742 10.3596 23.869 9.77978 23.5898 9.34378C23.3105 8.90778 22.7307 8.78071 22.2947 9.05996L21.4638 9.59216C20.8524 9.98374 20.0944 9.88703 19.5859 9.46515C18.8574 8.86087 18.0087 8.39823 17.0817 8.11827C16.4414 7.9249 15.9377 7.33441 15.9377 6.59785V5.625C15.9377 5.10723 15.518 4.6875 15.0002 4.6875ZM12.1877 5.625C12.1877 4.0717 13.4469 2.8125 15.0002 2.8125C16.5535 2.8125 17.8127 4.0717 17.8127 5.625V6.38266C18.847 6.72003 19.7988 7.23803 20.6312 7.89881L21.2834 7.48105C22.5914 6.64329 24.3309 7.0245 25.1687 8.33251C26.0064 9.64052 25.6252 11.38 24.3172 12.2178L23.7381 12.5887C23.9498 13.3574 24.0627 14.1663 24.0627 15C24.0627 15.6286 23.9985 16.2432 23.8762 16.8372L24.4311 17.1576C25.7763 17.9342 26.2372 19.6543 25.4605 20.9995C24.6839 22.3447 22.9638 22.8056 21.6186 22.029L21.0817 21.719C20.149 22.5636 19.0388 23.2174 17.8127 23.6173V24.375C17.8127 25.9283 16.5535 27.1875 15.0002 27.1875C13.4469 27.1875 12.1877 25.9283 12.1877 24.375V23.6173C11.0645 23.251 10.0385 22.6716 9.15719 21.9276L8.52813 22.3305C7.22011 23.1683 5.48062 22.7871 4.64285 21.479C3.80509 20.171 4.1863 18.4315 5.49431 17.5938L6.19349 17.146C6.02616 16.4571 5.93768 15.7383 5.93768 15C5.93768 14.3463 6.00704 13.7079 6.13911 13.0919L5.3806 12.654C4.0354 11.8773 3.5745 10.1572 4.35115 8.81202C5.1278 7.46682 6.8479 7.00592 8.1931 7.78257L8.97254 8.23258C9.89396 7.41137 10.9851 6.77492 12.1877 6.38266V5.625Z" fill="#8BB0C5"/>
</svg>
