<svg width="48" height="48" viewBox="0 0 48 48" fill="none" xmlns="http://www.w3.org/2000/svg">
<path d="M16.0286 33L14.9999 34.7152" stroke="#3E6991" stroke-width="3" stroke-linecap="round"/>
<path d="M21.0286 37L20 38.7152" stroke="#3E6991" stroke-width="3" stroke-linecap="round"/>
<path d="M33.0286 37L32 38.7152" stroke="#3E6991" stroke-width="3" stroke-linecap="round"/>
<path d="M28.0286 33L27 34.7152" stroke="#3E6991" stroke-width="3" stroke-linecap="round"/>
<path d="M35.025 15.06C34.005 9.885 29.46 6 24 6C19.8563 6 16.2333 8.24771 14.2841 11.5903C14.1153 11.8797 13.8237 12.0774 13.4932 12.1326C9.23738 12.8444 6 16.5486 6 21C6 25.965 10.035 30 15 30H34.5C38.64 30 42 26.64 42 22.5C42 18.54 38.925 15.33 35.025 15.06ZM34.5 27H15C11.685 27 9 24.315 9 21C9 17.685 11.685 15 15 15C15.6304 15 16.1731 14.5764 16.4225 13.9974C17.6893 11.0568 20.5951 9 24 9C28.56 9 32.25 12.69 32.25 17.25C32.25 17.6642 32.5858 18 33 18H34.5C36.99 18 39 20.01 39 22.5C39 24.99 36.99 27 34.5 27Z" fill="#3E6991"/>
</svg>
