<svg width="18" height="14" viewBox="0 0 18 14" fill="none" xmlns="http://www.w3.org/2000/svg">
<path d="M14.7273 3.5L11.4545 7H13.9091C13.9091 9.89625 11.7082 12.25 9 12.25C8.17364 12.25 7.38818 12.0312 6.70909 11.6375L5.51455 12.915C6.52091 13.5975 7.71545 14 9 14C12.6164 14 15.5455 10.8675 15.5455 7H18L14.7273 3.5ZM4.09091 7C4.09091 4.10375 6.29182 1.75 9 1.75C9.82636 1.75 10.6118 1.96875 11.2909 2.3625L12.4855 1.085C11.4791 0.4025 10.2845 0 9 0C5.38364 0 2.45455 3.1325 2.45455 7H0L3.27273 10.5L6.54545 7H4.09091Z" fill="#BACFDA"/>
</svg>
