<svg width="48" height="48" viewBox="0 0 48 48" fill="none" xmlns="http://www.w3.org/2000/svg">
<path d="M19 24.9734L19.8182 26.2307L20.5 25.7869V24.9734H19ZM29 24.9734H27.5V25.7869L28.1818 26.2307L29 24.9734ZM20.5 10C20.5 8.61929 21.6193 7.5 23 7.5V4.5C19.9624 4.5 17.5 6.96243 17.5 10H20.5ZM20.5 24.9734V10H17.5V24.9734H20.5ZM16.5 32.25C16.5 29.7569 17.8029 27.5422 19.8182 26.2307L18.1818 23.7162C15.3732 25.5441 13.5 28.6756 13.5 32.25H16.5ZM24 39.5C19.8178 39.5 16.5 36.2145 16.5 32.25H13.5C13.5 37.9505 18.2411 42.5 24 42.5V39.5ZM31.5 32.25C31.5 36.2145 28.1822 39.5 24 39.5V42.5C29.7589 42.5 34.5 37.9505 34.5 32.25H31.5ZM28.1818 26.2307C30.1971 27.5422 31.5 29.7569 31.5 32.25H34.5C34.5 28.6756 32.6268 25.5441 29.8182 23.7162L28.1818 26.2307ZM27.5 10V24.9734H30.5V10H27.5ZM25 7.5C26.3807 7.5 27.5 8.61929 27.5 10H30.5C30.5 6.96243 28.0376 4.5 25 4.5V7.5ZM23 7.5H25V4.5H23V7.5Z" fill="#3E6991"/>
<rect x="22" y="18" width="4" height="13" rx="2" fill="#3E6991"/>
<circle cx="24" cy="32" r="5" fill="#3E6991"/>
<path d="M34 11H33" stroke="#3E6991" stroke-width="3" stroke-linecap="round"/>
<path d="M34 15H33" stroke="#3E6991" stroke-width="3" stroke-linecap="round"/>
<path d="M34 19H33" stroke="#3E6991" stroke-width="3" stroke-linecap="round"/>
</svg>
