<svg width="9" height="17" viewBox="0 0 9 17" fill="none" xmlns="http://www.w3.org/2000/svg">
<path d="M6.53646 4.79238L5.31467 3.86143V2.33143V1.94286C5.31467 1.73238 5.49387 1.55429 5.72193 1.55429C5.95 1.55429 6.1292 1.72429 6.1292 1.94286C6.1292 2.21111 6.348 2.42857 6.61791 2.42857H7.26953C7.53944 2.42857 7.75824 2.21111 7.75824 1.94286C7.75824 0.866191 6.84598 0 5.72193 0C4.59789 0 3.68563 0.866191 3.68563 1.94286V2.33143V3.86143L2.46385 4.79238L0.930365 4.42225C0.356691 4.28378 -0.146406 4.82632 0.0391758 5.3833L3.72636 16.4495C3.84853 16.8138 4.17434 17 4.50015 17C4.82596 17 5.15177 16.8138 5.27395 16.4414L8.96078 5.38351C9.14649 4.82651 8.64337 4.28384 8.06963 4.42232L6.53646 4.79238ZM5.54274 6.07143L5.87422 6.32285C6.05595 6.46069 6.29092 6.50886 6.51271 6.45376L6.91114 6.35476L5.31818 12.1957L5.31467 5.90143L5.54274 6.07143ZM2.48851 6.46302C2.70979 6.51741 2.94395 6.46909 3.12515 6.33165L3.45756 6.07952L3.68563 5.90143L3.68182 12.1957L2.08102 6.36286L2.48851 6.46302Z" fill="#4282A4"/>
</svg>
