<svg width="44" height="29" viewBox="0 0 44 29" fill="none" xmlns="http://www.w3.org/2000/svg">
<path fill-rule="evenodd" clip-rule="evenodd" d="M2.47755 13.9832C2.41145 13.4781 2.37741 12.9636 2.37741 12.4416C2.37741 5.57028 8.27535 0 15.5508 0C20.4396 0 24.7064 2.5151 26.9797 6.24999C28.4699 5.08528 30.3456 4.39115 32.3835 4.39115C37.2339 4.39115 41.1658 8.32312 41.1658 13.1734C41.1658 13.3499 41.1606 13.5252 41.1503 13.6991C42.739 15.23 43.7273 17.3797 43.7273 19.7601C43.7273 24.4084 39.9592 28.1765 35.311 28.1765H8.59818C3.94995 28.1765 0.181824 24.4084 0.181824 19.7601C0.181824 17.5234 1.05433 15.4905 2.47755 13.9832Z" fill="#F0F9FE"/>
</svg>
